<svg xmlns="http://www.w3.org/2000/svg" width="605.454" height="101.993" viewBox="0 0 605.454 101.993">
  <g id="Group_4430" data-name="Group 4430" transform="translate(-657.273 -272.876)">
    <g id="Group_667" data-name="Group 667" transform="translate(381.064 -180.668)">
      <g id="Group_666" data-name="Group 666" transform="translate(388.203 464.928)">
        <g id="Group_665" data-name="Group 665">
          <path id="Path_1039" data-name="Path 1039" d="M547.611,522.708a20.219,20.219,0,0,1,12.138-3.974h4.924v9.805h-4.924a11.041,11.041,0,0,0-8.6,4.1,14.568,14.568,0,0,0-3.542,9.849v23.844h-9.805v-47.6h9.805Z" transform="translate(-537.806 -503.27)" fill="#fff"/>
          <path id="Path_1040" data-name="Path 1040" d="M616.772,540.72a12.092,12.092,0,0,0,3.542,8.768,11.845,11.845,0,0,0,17.105.043,12.24,12.24,0,0,0,3.542-8.812q0-.561-.043-1.123V518.734h10.021v39.955a24.38,24.38,0,0,1-6.609,17.019,20.14,20.14,0,0,1-15.118,6.824,22.165,22.165,0,0,1-12.786-4.319A23.643,23.643,0,0,1,608,567.847l9.374-3.585a14.165,14.165,0,0,0,4.751,5.745,12.488,12.488,0,0,0,7.084,2.505,10.467,10.467,0,0,0,8.121-3.974,14.991,14.991,0,0,0,3.542-9.028,21.812,21.812,0,0,1-27.645-2.937,21.745,21.745,0,0,1-6.48-15.853V518.734h10.021Z" transform="translate(-576.255 -503.27)" fill="#fff"/>
          <path id="Path_1041" data-name="Path 1041" d="M751.048,517.269a22.833,22.833,0,0,1,16.889,7.17,24.459,24.459,0,0,1,0,34.254,23.5,23.5,0,0,1-30.8,2.548V581.5h-9.978V517.917h9.978V521.8A23.042,23.042,0,0,1,751.048,517.269Zm0,38.573a13.107,13.107,0,0,0,9.762-4.19,14.447,14.447,0,0,0,0-20.172,13.567,13.567,0,0,0-19.61,0,14.557,14.557,0,0,0,0,20.172A13.2,13.2,0,0,0,751.048,555.842Z" transform="translate(-643.406 -502.453)" fill="#fff"/>
          <path id="Path_1042" data-name="Path 1042" d="M862.6,499.237h6.436v9.805H862.6v37.8h-9.805v-37.8H846.4v-9.805h6.393V483.773H862.6Z" transform="translate(-709.904 -483.773)" fill="#fff"/>
          <path id="Path_1043" data-name="Path 1043" d="M932.689,517.66a22.9,22.9,0,0,1,16.889,7.127,24.51,24.51,0,0,1,0,34.3,23.575,23.575,0,0,1-33.778,0,24.511,24.511,0,0,1,0-34.3A22.807,22.807,0,0,1,932.689,517.66Zm0,38.53a13.314,13.314,0,0,0,9.805-4.147,14.612,14.612,0,0,0,0-20.215,13.717,13.717,0,0,0-19.654,0,14.725,14.725,0,0,0,0,20.215A13.362,13.362,0,0,0,932.689,556.19Z" transform="translate(-744.704 -502.671)" fill="#fff"/>
          <path id="Path_1044" data-name="Path 1044" d="M1062.451,566.335l-8.768-27.213-8.768,27.213h-6.825l-15.42-47.6h10.28l8.553,26.219,8.466-26.219h7.43l8.466,26.219,8.466-26.219h10.237l-15.291,47.6Z" transform="translate(-808.206 -503.27)" fill="#fff"/>
          <path id="Path_1045" data-name="Path 1045" d="M1193.831,498.719a20.325,20.325,0,0,1,15.507,7,23.769,23.769,0,0,1,6.479,16.8v24.319h-9.805V522.519a14.524,14.524,0,0,0-3.585-9.892,11.055,11.055,0,0,0-17.192,0,14.628,14.628,0,0,0-3.542,9.892v24.319h-9.805V483.773h9.805v18.92A20.342,20.342,0,0,1,1193.831,498.719Z" transform="translate(-891.422 -483.773)" fill="#fff"/>
          <path id="Path_1046" data-name="Path 1046" d="M1334.017,565.736H1324v-4.1a23.448,23.448,0,0,1-30.755-2.549,24.51,24.51,0,0,1,0-34.3A23.525,23.525,0,0,1,1324,522.2v-4.06h10.021Zm-23.887-9.546a13.313,13.313,0,0,0,9.805-4.147,14.611,14.611,0,0,0,0-20.215,13.717,13.717,0,0,0-19.654,0,14.725,14.725,0,0,0,0,20.215A13.361,13.361,0,0,0,1310.13,556.19Z" transform="translate(-955.196 -502.671)" fill="#fff"/>
          <path id="Path_1047" data-name="Path 1047" d="M1417.689,483.773h9.762v63.065h-9.762Z" transform="translate(-1028.501 -483.773)" fill="#fff"/>
          <path id="Path_1048" data-name="Path 1048" d="M1504.468,555.456a23.618,23.618,0,0,1-36.716,3.628,24.512,24.512,0,0,1,0-34.3,23.576,23.576,0,0,1,33.779,0,23.506,23.506,0,0,1,7,17.149v4.1H1471.64a13.252,13.252,0,0,0,13,10.151,12.715,12.715,0,0,0,11.144-5.745Zm-6.825-18.53a14.066,14.066,0,0,0-5.011-6.652,13.615,13.615,0,0,0-15.982,0,14.066,14.066,0,0,0-5.011,6.652Z" transform="translate(-1052.519 -502.671)" fill="#fff"/>
          <path id="Path_1049" data-name="Path 1049" d="M1598.875,527.681a5.79,5.79,0,0,0-3.844,1.339,4.211,4.211,0,0,0-1.6,3.283,3.169,3.169,0,0,0,1.08,2.635,22.165,22.165,0,0,0,5.7,2.117,29.856,29.856,0,0,1,9.071,3.845q5.1,3.715,5.1,10.626a13.723,13.723,0,0,1-4.536,10.367,16.04,16.04,0,0,1-21.9,0,13.722,13.722,0,0,1-4.536-10.367h10.022a4.251,4.251,0,0,0,1.6,3.326,5.788,5.788,0,0,0,3.844,1.339,5.853,5.853,0,0,0,3.888-1.339,4.21,4.21,0,0,0,1.641-3.326,3.165,3.165,0,0,0-1.123-2.678,21.735,21.735,0,0,0-5.788-2.16,29.154,29.154,0,0,1-9.028-3.845q-5.054-3.67-5.054-10.54a13.811,13.811,0,0,1,4.536-10.367,16.157,16.157,0,0,1,21.9,0,13.812,13.812,0,0,1,4.536,10.367H1604.4a4.172,4.172,0,0,0-1.641-3.283A5.855,5.855,0,0,0,1598.875,527.681Z" transform="translate(-1120.922 -502.671)" fill="#fff"/>
        </g>
      </g>
    </g>
    <path id="Path_1055" data-name="Path 1055" d="M355.608,513.414c-16.7-3.375-25.671,8.439-25.671,8.439s-7.994,6.662-5.33,21.673c0,0-15.012-5.063-15.367-24.516,0,0-.355-11.1,8.616-18.12a23.784,23.784,0,0,1-8.618-18.476c-.176-12.436,5.867-19.865,15.369-23.983,0,0-4.708,19.186,14.479,28.6,12.533,6.151,24.09.254,30.732-7.891a51,51,0,1,0-89.052,49.333l-10,12.543s13.115,9.16,26.832-8.1a37.466,37.466,0,0,1-5.8,7.826,51.006,51.006,0,0,0,78.082-18.071A23.26,23.26,0,0,0,355.608,513.414Zm-57.416,18.453-.015-.017c.1-.14.145-.218.145-.218C298.279,531.713,298.235,531.787,298.192,531.867Z" transform="translate(386.502 -177.106)" fill="#fff"/>
  </g>
</svg>
