<svg xmlns="http://www.w3.org/2000/svg" width="26.519" height="18.925" viewBox="0 0 26.519 18.925">
  <path id="Path_1032" data-name="Path 1032" d="M357.207,241.7a28.863,28.863,0,0,0-.665-3.758,31.978,31.978,0,0,0-1.131-3.656,28.085,28.085,0,0,0-1.193-2.742.837.837,0,0,0-.3-.386c-.1-.058-.191-.132-.287-.2a12.069,12.069,0,0,0-3.351-1.608,9.409,9.409,0,0,0-2.176-.412c-.458-.026-.321-.069-.607.251l-.007.008c-.057.055-.035.083.031.1.094.027.188.056.281.086a18.854,18.854,0,0,1,3.137,1.313,12.559,12.559,0,0,1,1.9,1.227.858.858,0,0,1,.2.18.094.094,0,0,1-.08-.02c-.306-.167-.619-.319-.934-.467a18.712,18.712,0,0,0-6.674-1.712c-.609-.039-1.218-.052-1.827-.032-.776.025-1.547.111-2.317.207a17.8,17.8,0,0,0-3.246.717,21.168,21.168,0,0,0-2.993,1.239.326.326,0,0,1-.158.056,2.324,2.324,0,0,1,.357-.307,13.273,13.273,0,0,1,2.1-1.291,18.405,18.405,0,0,1,2.534-1.04c.255-.083.512-.16.768-.241.105-.033.105-.051.041-.141a.327.327,0,0,0-.313-.147,9.838,9.838,0,0,0-2.485.464,12.472,12.472,0,0,0-3.526,1.768.787.787,0,0,0-.264.31c-.1.206-.2.41-.3.616a30.215,30.215,0,0,0-1.684,4.453,29.611,29.611,0,0,0-.9,4.087q-.16,1.093-.234,2.195c-.033.478-.034.957-.056,1.434a.416.416,0,0,0,.067.278,6.893,6.893,0,0,0,1.145,1.247,8.45,8.45,0,0,0,3.448,1.761,10.117,10.117,0,0,0,2.149.307.211.211,0,0,0,.189-.081q.673-.827,1.35-1.651c.086-.106.086-.108-.037-.148a8.906,8.906,0,0,1-1.683-.733,6.755,6.755,0,0,1-2.047-1.73.373.373,0,0,1-.085-.15,17.184,17.184,0,0,0,8.842,2.548,16.616,16.616,0,0,0,8.844-2.532.632.632,0,0,1-.116.181,6.612,6.612,0,0,1-1.494,1.354,8.475,8.475,0,0,1-2.319,1.079c-.139.041-.143.047-.055.154q.664.806,1.329,1.612a.187.187,0,0,0,.17.076c.2-.014.4-.023.6-.041a9.243,9.243,0,0,0,3.559-1.035,7.593,7.593,0,0,0,2.554-2.16.533.533,0,0,0,.112-.349C357.344,243.391,357.3,242.544,357.207,241.7Zm-15.59-.243a2.206,2.206,0,0,1-3.31.214,2.63,2.63,0,0,1,.239-3.941,2.242,2.242,0,0,1,2.817.15,2.514,2.514,0,0,1,.817,1.9A2.6,2.6,0,0,1,341.617,241.457Zm8.859-1.616a2.6,2.6,0,0,1-.539,1.586,2.212,2.212,0,0,1-3.354.226,2.638,2.638,0,0,1,.126-3.817,2.2,2.2,0,0,1,2.858-.02,2.512,2.512,0,0,1,.905,1.86c0,.04.005.08.008.119C350.479,239.806,350.477,239.817,350.475,239.841Z" transform="translate(-330.837 -228.922)" fill="#fff"/>
</svg>
