<svg xmlns="http://www.w3.org/2000/svg" width="23.562" height="23.562" viewBox="0 0 23.562 23.562">
  <path id="Path_58" data-name="Path 58" d="M358.721,235.647h-10.73a.512.512,0,0,0-.062-.01,5.852,5.852,0,0,1-1.071-.16,6.8,6.8,0,0,1-2.362-1.058,6.928,6.928,0,0,1-1.3-1.184,6.8,6.8,0,0,1-1.519-3.207c-.048-.264-.076-.53-.1-.8V218.5a.61.61,0,0,0,.011-.071,5.171,5.171,0,0,1,.1-.788,6.862,6.862,0,0,1,2.295-3.932,6.721,6.721,0,0,1,1.638-1.036,6.873,6.873,0,0,1,1.683-.507c.229-.038.46-.058.69-.082h10.73c.234.023.467.044.7.083a6.756,6.756,0,0,1,2.433.906,6.885,6.885,0,0,1,1.8,1.584,6.772,6.772,0,0,1,1.39,3.064c.046.258.073.519.1.779v10.73a.663.663,0,0,0-.011.071,5.185,5.185,0,0,1-.1.788,6.88,6.88,0,0,1-3.916,4.959,6.913,6.913,0,0,1-1.672.512C359.2,235.6,358.96,235.624,358.721,235.647Zm-15.326-11.781q0,2.419,0,4.839a5.927,5.927,0,0,0,.051.8,4.991,4.991,0,0,0,2.468,3.655,4.963,4.963,0,0,0,2.5.664q4.888.006,9.777,0a6.215,6.215,0,0,0,.784-.05,4.879,4.879,0,0,0,1.909-.662,5.016,5.016,0,0,0,2.434-4.271q.01-4.907,0-9.813c0-.126-.005-.253-.011-.379a4.991,4.991,0,0,0-1.288-3.1,4.971,4.971,0,0,0-1.725-1.231,4.854,4.854,0,0,0-1.933-.409q-4.929-.009-9.859,0a5.7,5.7,0,0,0-.784.051,5.006,5.006,0,0,0-4.321,4.936C343.391,220.55,343.394,222.208,343.394,223.866Z" transform="translate(-341.575 -212.085)" fill="#16B4FF"/>
</svg>
