<svg xmlns="http://www.w3.org/2000/svg" xmlns:xlink="http://www.w3.org/1999/xlink" width="399.993" height="360.557" viewBox="0 0 399.993 360.557">
  <defs>
    <radialGradient id="radial-gradient" cx="0.358" cy="0.358" r="0.686" gradientTransform="translate(-0.078) scale(1.155 1)" gradientUnits="objectBoundingBox">
      <stop offset="0.011" stop-color="#0088d3"/>
      <stop offset="0.153" stop-color="#0082ce"/>
      <stop offset="0.332" stop-color="#0172c2"/>
      <stop offset="0.53" stop-color="#0259ae"/>
      <stop offset="0.743" stop-color="#043593"/>
      <stop offset="0.966" stop-color="#06076f"/>
      <stop offset="0.999" stop-color="#07006a"/>
    </radialGradient>
    <radialGradient id="radial-gradient-2" cx="0.358" cy="0.358" r="0.546" gradientTransform="translate(-1.023) scale(3.045 1)" gradientUnits="objectBoundingBox">
      <stop offset="0.031" stop-color="#0047bf"/>
      <stop offset="0.358" stop-color="#0247c0"/>
      <stop offset="0.521" stop-color="#0948c4"/>
      <stop offset="0.649" stop-color="#1749cb"/>
      <stop offset="0.757" stop-color="#294bd5"/>
      <stop offset="0.853" stop-color="#424ee2"/>
      <stop offset="0.94" stop-color="#5f51f1"/>
      <stop offset="1" stop-color="#7954ff"/>
    </radialGradient>
    <radialGradient id="radial-gradient-3" cx="0.358" cy="0.358" r="1.256" gradientTransform="translate(0.273) scale(0.453 1)" gradientUnits="objectBoundingBox">
      <stop offset="0"/>
      <stop offset="0.119" stop-color="#000204"/>
      <stop offset="0.244" stop-color="#000910"/>
      <stop offset="0.37" stop-color="#001525"/>
      <stop offset="0.498" stop-color="#002642"/>
      <stop offset="0.627" stop-color="#003b68"/>
      <stop offset="0.757" stop-color="#005696"/>
      <stop offset="0.886" stop-color="#0074cb"/>
      <stop offset="0.994" stop-color="#0092ff"/>
    </radialGradient>
    <radialGradient id="radial-gradient-4" cx="0.417" cy="0.457" r="0.733" gradientTransform="translate(0.161 3.096) scale(0.614 0.76)" gradientUnits="objectBoundingBox">
      <stop offset="0"/>
      <stop offset="0.168" stop-color="#000204"/>
      <stop offset="0.342" stop-color="#000910"/>
      <stop offset="0.519" stop-color="#001425"/>
      <stop offset="0.699" stop-color="#002542"/>
      <stop offset="0.878" stop-color="#003a67"/>
      <stop offset="0.994" stop-color="#004a84"/>
    </radialGradient>
    <radialGradient id="radial-gradient-5" cx="0.417" cy="0.457" r="0.75" gradientTransform="translate(0.168 3.001) scale(0.596 0.76)" gradientUnits="objectBoundingBox">
      <stop offset="0" stop-color="#004394"/>
      <stop offset="0.187" stop-color="#004698"/>
      <stop offset="0.381" stop-color="#004fa4"/>
      <stop offset="0.579" stop-color="#005eb9"/>
      <stop offset="0.778" stop-color="#0074d6"/>
      <stop offset="0.978" stop-color="#008ffb"/>
      <stop offset="0.994" stop-color="#0092ff"/>
    </radialGradient>
    <filter id="Path_1061" x="0" y="0" width="399.993" height="358.363" filterUnits="userSpaceOnUse">
      <feOffset input="SourceAlpha"/>
      <feGaussianBlur stdDeviation="49.5" result="blur"/>
      <feFlood flood-color="#16b4ff"/>
      <feComposite operator="in" in2="blur"/>
      <feComposite in="SourceGraphic"/>
    </filter>
    <radialGradient id="radial-gradient-6" cx="0.358" cy="0.358" r="0.547" gradientTransform="translate(-0.982) scale(2.965 1)" gradientUnits="objectBoundingBox">
      <stop offset="0.022" stop-color="#0072d1"/>
      <stop offset="0.186" stop-color="#0068c7"/>
      <stop offset="0.461" stop-color="#004ead"/>
      <stop offset="0.81" stop-color="#002583"/>
      <stop offset="1" stop-color="#000c6a"/>
    </radialGradient>
    <linearGradient id="linear-gradient" y1="0.5" x2="1" y2="0.5" gradientUnits="objectBoundingBox">
      <stop offset="0" stop-color="#ca528d"/>
      <stop offset="1" stop-color="#b3757c"/>
    </linearGradient>
    <linearGradient id="linear-gradient-2" x1="0.5" y1="1" x2="0.5" gradientUnits="objectBoundingBox">
      <stop offset="0" stop-color="#eee1e3"/>
      <stop offset="1" stop-color="#70528d"/>
    </linearGradient>
    <radialGradient id="radial-gradient-7" cx="0.358" cy="0.358" r="0.567" gradientTransform="translate(-0.637) scale(2.275 1)" xlink:href="#radial-gradient-2"/>
    <radialGradient id="radial-gradient-8" cx="0.358" cy="0.358" r="0.559" gradientTransform="translate(-0.748) scale(2.495 1)" xlink:href="#radial-gradient"/>
    <radialGradient id="radial-gradient-9" cx="0.358" cy="0.358" r="0.523" gradientTransform="translate(-3.543) scale(8.086 1)" gradientUnits="objectBoundingBox">
      <stop offset="0.022" stop-color="#0072d1"/>
      <stop offset="0.296" stop-color="#0271d1"/>
      <stop offset="0.433" stop-color="#0970d2"/>
      <stop offset="0.539" stop-color="#176fd5"/>
      <stop offset="0.63" stop-color="#296cd8"/>
      <stop offset="0.71" stop-color="#4269dd"/>
      <stop offset="0.784" stop-color="#6066e3"/>
      <stop offset="0.852" stop-color="#8361ea"/>
      <stop offset="0.916" stop-color="#ad5cf2"/>
      <stop offset="0.975" stop-color="#da56fa"/>
      <stop offset="1" stop-color="#f154ff"/>
    </radialGradient>
    <radialGradient id="radial-gradient-10" cx="0.358" cy="0.358" r="0.52" gradientTransform="translate(-6.132) scale(13.264 1)" xlink:href="#radial-gradient"/>
    <linearGradient id="linear-gradient-3" x1="0.5" y1="1" x2="0.5" y2="0" gradientTransform="matrix(1, 0, 0, 1, 0, 0)" xlink:href="#radial-gradient-3"/>
    <radialGradient id="radial-gradient-11" cx="0.358" cy="0.358" r="0.532" gradientTransform="translate(-1.721) scale(4.443 1)" xlink:href="#radial-gradient-3"/>
    <radialGradient id="radial-gradient-12" cx="0.358" cy="0.358" r="0.562" gradientTransform="translate(-0.7) scale(2.4 1)" xlink:href="#radial-gradient"/>
    <radialGradient id="radial-gradient-13" cx="0.358" cy="0.358" r="0.599" gradientTransform="translate(-0.363) scale(1.726 1)" xlink:href="#radial-gradient"/>
    <linearGradient id="linear-gradient-6" x1="0.62" y1="0.938" x2="0.355" y2="0.183" gradientUnits="objectBoundingBox">
      <stop offset="0"/>
      <stop offset="0.105" stop-color="#040508"/>
      <stop offset="0.275" stop-color="#111521"/>
      <stop offset="0.491" stop-color="#262f48"/>
      <stop offset="0.739" stop-color="#43527e"/>
      <stop offset="0.983" stop-color="#6379bb"/>
    </linearGradient>
    <linearGradient id="linear-gradient-7" x1="0" y1="0.5" x2="1" y2="0.5" gradientTransform="matrix(1, 0, 0, 1, 0, 0)" xlink:href="#radial-gradient-3"/>
    <radialGradient id="radial-gradient-14" cx="0.358" cy="0.358" r="1.671" gradientTransform="translate(0.337) scale(0.326 1)" xlink:href="#radial-gradient"/>
    <linearGradient id="linear-gradient-8" y1="0.5" x2="1" y2="0.5" gradientUnits="objectBoundingBox">
      <stop offset="0.017" stop-color="#6379bb"/>
      <stop offset="0.261" stop-color="#43527e"/>
      <stop offset="0.509" stop-color="#262f48"/>
      <stop offset="0.725" stop-color="#111521"/>
      <stop offset="0.895" stop-color="#040508"/>
      <stop offset="1"/>
    </linearGradient>
    <linearGradient id="linear-gradient-9" x1="0" y1="0.5" x2="1" y2="0.5" xlink:href="#linear-gradient-6"/>
    <linearGradient id="linear-gradient-10" x1="0.5" y1="1" x2="0.5" y2="0" xlink:href="#linear-gradient-6"/>
  </defs>
  <g id="Group_671" data-name="Group 671" transform="translate(-631.856 -72.269)" style="mix-blend-mode: screen;isolation: isolate">
    <path id="Path_1057" data-name="Path 1057" d="M805.212,427.259s1.763,20.063,2.92,30.309,3.635,21.647,5.453,30.4,8.669,18.012,17.141,23.8,9.817,4.479,16.332,8.353,18.314,1.471,28.163,4.04q.557.145,1.1.269c9.162,2.11,14.273-.269,14.273-.269s-4.736.165-16.083-1.157-20.258-1.7-32.819-6.279-22.637-16.956-26.449-28.092-5.949-27.265-6.445-35.858-3.905-23.653-1.292-26.12Z" transform="translate(-17.525 -145.15)" fill-rule="evenodd" fill="url(#radial-gradient)"/>
    <path id="Path_1058" data-name="Path 1058" d="M881.356,406.4a7.738,7.738,0,0,1-2.557,5.975,29.157,29.157,0,0,0-5.112,7.17,8.34,8.34,0,0,1,0,7.011c-1.726,3.842-6.064,15.74-6.064,15.74l.749,4.879s6.053.7,6.122,4.787,6.871,16.112,6.871,16.112l-2.134,4.3s2.451,4.087.729,7.414S890.3,490.753,890.3,490.753l11.4,13.137-1.42,9.335a5.4,5.4,0,0,1,2.412,4.422,8.579,8.579,0,0,1-1.611,4.982l4.957,4.437-3.23.758a4.681,4.681,0,0,1,.911,4.639c-1.028,2.534,5.665,0,5.665,0V515.787l-4.214-22.432L882,439.94l1.24-25.578-.124-7.463Z" transform="translate(-61.526 -130.87)" fill-rule="evenodd" fill="url(#radial-gradient-2)"/>
    <path id="Path_1059" data-name="Path 1059" d="M875.59,364.867s1.315-8.265,4.631-13.813c4.3-7.188,20.656-10.741,33.379-7.436s15.209,15.409,15.209,15.409a152.973,152.973,0,0,1-28.051,6.7C885.225,367.873,875.59,364.867,875.59,364.867Z" transform="translate(-67.142 -85.732)" fill-rule="evenodd" fill="url(#radial-gradient-3)" style="mix-blend-mode: screen;isolation: isolate"/>
    <path id="Path_1060" data-name="Path 1060" d="M795.55,289.888c1.383,2.912,11.347-1,20.766.028s29,2.135,45.855.593,23.316-5.048,23.316-5.048,6.462-6.41,0-15.581-9.684-12.393-17.12-29c0,0-17.516-14.376-39.659-6.94-24.112,8.1-35.693,26.026-36.932,35.941S793.87,286.349,795.55,289.888Z" transform="translate(-7.863 -7.779)" fill-rule="evenodd" fill="url(#radial-gradient-4)" style="mix-blend-mode: screen;isolation: isolate"/>
    <g transform="matrix(1, 0, 0, 1, 631.86, 72.27)" filter="url(#Path_1061)" style="mix-blend-mode: screen;isolation: isolate">
      <path id="Path_1061-2" data-name="Path 1061" d="M882.643,272.012a.082.082,0,0,0-.033.055,13.042,13.042,0,0,1-4.978,5.614s-2.105-3.235-10.8-4.178-12.106,1.206-18.422,2-9.738-.79-17.643-1.842-13.159,3.7-19.211,5-7.369-.263-12.906,0-11.777,6.294-13.937,1.842c-.669-1.36-1.338-2.8-1.941-4.31a.155.155,0,0,1-.022-.066,40.454,40.454,0,0,1-1.458-4.353.262.262,0,0,0-.022-.1,27.072,27.072,0,0,1-.9-7.336,22.927,22.927,0,0,1,.395-3.892c.855-4.639,3.191-9.628,7.884-14.946,9.967-11.251,21.086-20.439,34.1-23.565a41.9,41.9,0,0,1,17.764-.406c21.065,3.948,23.7,13.17,27.644,21.865s9.474,10.79,13.948,20A10.176,10.176,0,0,1,882.643,272.012Z" transform="translate(-631.86 -72.27)" fill-rule="evenodd" fill="url(#radial-gradient-5)"/>
    </g>
    <path id="Path_1062" data-name="Path 1062" d="M911.4,531.235c-2.485,3.637-5.455,4.958-7.77,6.619s-2.643,2.97-3.964,6.436a13.4,13.4,0,0,1-1.269,2.394,36.927,36.927,0,0,1-3.375,4.408c-.026.026-.04.052-.053.065s-.052.039-.065.065l-.1.131-.026.013c-.576.654-1.007,1.112-1.164,1.282-.013.026-.039.039-.052.053.039-.078.261-.458.576-1.02,1.007-1.805,2.983-5.573,3.218-7.888.327-3.14-.994-3.466-1.321-5.612s2.315-3.14,2.472-4.958-2.472-1.989-2.969-4.461,4.958-4.461,4.958-6.606-4.461-.994-4.958-4.958c0-.026-.013-.066,0-.092a.235.235,0,0,1-.013-.131c-.3-3.768,4.3-4.474,3.977-7.875-.327-3.48-4.618-2.812-5.115-4.3-.419-1.23-.026-1.439.013-2.629a6.193,6.193,0,0,0-.013-.837,2.708,2.708,0,0,0-.877-1.819,9.289,9.289,0,0,1-1.936-2.145c-.994-1.818-.5-2.97-1.648-4.958s-6.122.17-7.771-.994-.994-3.467-1.334-7.274-7.26-5.782-7.758-8.752,3.637-3.637,3.964-6.449-1.478-2.97-2.97-4.291-1.491-3.14-2.643-6.947-5.455-4.618-5.625-8.1,5.625-5.115,5.952-8.1-3.964-3.14-7.273-2.3-4.788.157-3.964-3.31,0-4.461.824-8.268,7.273-8.1,8.1-8.922,1.164-3.139.994-4.461-2.643-1.321-2.146-4.788,7.274-5.128,8.425-6.776c.889-1.269-.131-3.388-.641-4.291-.157-.275-.262-.432-.262-.432.5-.209,1.02-.406,1.544-.589a41.445,41.445,0,0,1,12.689-1.923c2.878-.053,3.012,1.309,5.3,1.519,3.912.366,8.4.9,8.4.9s-2.742,4.817-4.56,5.968c-1.465.942-3.153.589-3.977,1.6a2.02,2.02,0,0,0-.471.994,2.72,2.72,0,0,0,.092,1.465c.445,1.348,1.714,2.224,1.217,3.218a13.419,13.419,0,0,1-2.185,3.153c-.2.209-.405.432-.628.654a16.451,16.451,0,0,0-2.97,5.115c-.5,1.321,1.492,3.31,1.151,5.128s-1.151.654-2.316,2.146.17,3.807.34,5.782a11.122,11.122,0,0,0,1.648,3.572l.039.078c1.491,2.512,3.545,5.612,4.252,7.757a5.672,5.672,0,0,1,.288,2c-.052,2.708-1.766,5.154-1.766,6.75,0,1.989.994,4.631,3.637,5.285s3.637,5.3,3.964,6.776-2.812,1.818-2.315,3.14,2.315,2.486,4.134,3.637,3.467,4.461,3.637,6.28,0,2.145,1.321,3.31,1.151,0,2.473,2.315,2.145,10.9.17,13.88-2.983,9.419-2.315,12.559,2.813,3.3,2.97,4.618-1.648,1.818-2.473,3.977,3.637,3.14,3.964,4.788S913.876,527.6,911.4,531.235Z" transform="translate(-56.348 -123.146)" fill-rule="evenodd" fill="url(#radial-gradient-6)"/>
    <path id="Path_1063" data-name="Path 1063" d="M950.454,531.236c-2.485,3.637-5.455,4.958-7.77,6.619s-2.643,2.97-3.964,6.436a13.4,13.4,0,0,1-1.269,2.394,36.914,36.914,0,0,1-3.375,4.408c4.33-5.507,6.894-15.646,6.894-15.646s2.786-6.436,2.289-8.176.5-5.952-.85-8.922.353-4.71,0-7.679-.393-4.71-.654-8.673-4.683-13.644-4.683-13.644-4.71-8.922-6.619-11.146-3.794-10.662-4.683-13.631-4.566-7.941-4.853-11.368-3.179-9.209-4.526-11.931-.393-6.449-.445-9.536.8-4.095,1.544-6.58,1.23-7.182,2.067-10.609,1.9-4.265,4.121-8.268a22.134,22.134,0,0,0,2.485-8.477l2.917-1.361c2.878-.053,4.967,2.229,7.257,2.438l-1.971,6.771-.118.772-.379,2.459-.968,6.371-3.27,21.31.5,1.086.039.078,4.539,9.759c-.052,2.708-1.766,5.154-1.766,6.75,0,1.989.994,4.631,3.637,5.285s3.637,5.3,3.964,6.776-2.812,1.818-2.315,3.14,2.315,2.486,4.134,3.637,3.467,4.461,3.637,6.28,0,2.145,1.321,3.31,1.151,0,2.473,2.315,2.145,10.9.17,13.88-2.983,9.419-2.315,12.559,2.812,3.3,2.97,4.618-1.648,1.818-2.473,3.977,3.637,3.14,3.964,4.788S952.927,527.6,950.454,531.236Z" transform="translate(-95.399 -123.148)" fill-rule="evenodd" opacity="0.3" fill="url(#linear-gradient)" style="mix-blend-mode: multiply;isolation: isolate"/>
    <path id="Path_1064" data-name="Path 1064" d="M888.345,416.953s-12.339,2.3-14.9,5.4c0,0-.6.658,0,2.527,0,0,8.7-3.03,10.022-2.372a10.609,10.609,0,0,1-.359,3.307c-.431.863-6.47,4.529-6.47,4.529l5.535-1.941s-.742,5.535-1.413,7.045-12.462,4.035-14.5,6.475-1.051,7.9-1.051,7.9,5.679-.5,9.345-1.294a16.208,16.208,0,0,1,5.032-.575l-2.929,3.738s1.923-1.725,2.426-1.078a12.932,12.932,0,0,1,1.116,3.666c.105.647-8.089,4.888-9.886,7.979a4.3,4.3,0,0,0,2.156,3.941s7.835-5.6,9.848-6.242a5.232,5.232,0,0,1,1.492,3.452s-6.74,9.815-7.027,13.067c0,0,4.207-7.6,7.027-9.688a50.766,50.766,0,0,1,3.413,6.47,57.694,57.694,0,0,1-5.912,9.417,25.934,25.934,0,0,0-4.165,6.653l3.933,3.166s4.042-6.081,6.63-9.029,3.5-3.091,3.5-3.091,1.03,3.307.671,4.672-3.163,5.823-4.169,9.992a71.791,71.791,0,0,1,4.6-8.2,10.774,10.774,0,0,1,1.581,3.594c.072,1.294-7.879,13.674-7.879,13.674a13.836,13.836,0,0,0,4.017-.091s5.179-5.891,6.785-6.466,3.691,3.019,3.691,3.019a48.2,48.2,0,0,1-1.725,5.319,35.76,35.76,0,0,0-1.646,6.43l.439.849s1.854-5.123,2.932-6.632,2.588,1.653,2.588,1.653-2.241,6.6-4.679,9.768c0,0,3.777-4.253,5.2-5.99s1.659,2.3,1.612,3.787-.076,4.531-.816,5.959-4.731,5.268-5.125,6.748a5.216,5.216,0,0,0,.247,2.995,24.113,24.113,0,0,1,2.844-3.5,13.312,13.312,0,0,1,3.632-2.516,30.291,30.291,0,0,1,0,5.607c-.325,1.869.326,3.091.145,4.457s-3.326,2.78-3.776,4.673,1.366,0,2.372,1.438-.9,4.315-2.1,5.882a19.792,19.792,0,0,1-3.31,3.14s.443,1.273.811,2.229a22.323,22.323,0,0,1,3.661-3.271,3.806,3.806,0,0,0,1.58-2.085l2.126,1.941a7.714,7.714,0,0,1-.4-4.169c.5-1.941,1.653-4.888,1.725-6.326s7.661.774,7.661.774l.128-1.133s-4.842-.5-6.568-2.8-1.437-3.091-1.51-5.463,5.8-1.54,5.8-1.54.492-.175.507-1.294c0,0-5.377-1.55-6.1-3.132a25.344,25.344,0,0,1-1.254-4.6l2.4,1.581-2.076-2.228s-.431-5.409-.328-8.024l5.83.876a21.616,21.616,0,0,0,1.617-3.517c.2-.979-8.959-27.433-8.959-27.433l-12.761-39.68,3.019-25.3-3.229-2.92Z" transform="translate(-59.656 -135.607)" fill-rule="evenodd" opacity="0.59" fill="url(#linear-gradient-2)" style="mix-blend-mode: multiply;isolation: isolate"/>
    <path id="Path_1065" data-name="Path 1065" d="M940.693,473.348s2.136.015,2.81,3.155-1.405,2.992-1.405,2.992l-3.684,4.648s1.75.713,1.752,3.767l9.717,19.081,18.53,38.915-1.67,2.43s8.582,4.138,8,9.468l2.407-2.165v-7.75l-9.926-15.368-14.376-33.338-2.969-19.829-1.245-7.56-3.594-2.107Z" transform="translate(-111.433 -175.487)" fill-rule="evenodd" fill="url(#radial-gradient-7)"/>
    <path id="Path_1066" data-name="Path 1066" d="M973.945,501.671c-1.151,2.643-2.643,2.969-4.788,4.291a7.854,7.854,0,0,0-2.812,2.643,2.48,2.48,0,0,1,0-1.047,4.887,4.887,0,0,1,1.648-2.747c2.145-1.989.824-2.813,0-5.285s-5.612-3.48-9.576-4.631-2.812-4.461-3.637-8.268-3.14-4.618-6.946-7.43-4.618-8.765-5.455-12.559-.654-1.989-2.643-4.461-7.758-14.05-8.752-16.366.824-3.3,3.14-5.442-1.818-2.158-2.146-3.637,3.14-1.988,3.166-4.134-4.487-.994-5.821-1.818.17-1.989,3.14-3.467,8.268-.5,8.438-3.637-8.922-2.983-9.759-4.3.5-1.975,2.486-3.964.824-3.794,1.517-6.606,1.517-5.272,1.609-8.595a9.216,9.216,0,0,0-.222-2.315,10.363,10.363,0,0,0-1.373-3.375,40.417,40.417,0,0,0,10.9,2.76c6.057.576,9.38-.863,9.38-.863a36.36,36.36,0,0,1-2.97,5.285c-1.3,1.648-.5,5.285-.759,9.079s-2.211,3.14-4.867,6.45-2.643,7.443-.981,11.9,6.776,1.321,7.757,4.461-2.472,4.958-2.642,9.131,1.491,8.385,2.642,10.858,3.964,2.145,5.3,3.31,0,.824.484,3.794-.484,5.952-.484,8.922,4.945,4.8,7.431,5.782,2.472,3.31,2.643,5.8,2.486,3.794,1.491,5.782.157,3.794,2.146,6.279A8.331,8.331,0,0,1,973.945,501.671Z" transform="translate(-104.683 -122.493)" fill-rule="evenodd" fill="url(#radial-gradient-8)"/>
    <path id="Path_1067" data-name="Path 1067" d="M780.358,368.442a45.318,45.318,0,0,0,.9,7.339A27.325,27.325,0,0,1,780.358,368.442Z" transform="translate(0 -104.11)" fill-rule="evenodd" fill="url(#radial-gradient-9)"/>
    <path id="Path_1068" data-name="Path 1068" d="M860.453,418.623s-.5.468,0,4.358-.491,15.787-1.235,22.479-1.735,19.535-.992,23.028,1.749,15.391,2.362,20.1,5.074,26.274,4.579,34.453-1.5,7.188-4.714,14.129a56.705,56.705,0,0,0-4.516,21.316c.059,4.957,0,7.188,0,7.188s-2.42-12.393-1.676-16.855,6.94-16.359,8.923-21.069-.743-6.444-.991-9.915,1.115-12.889-1.24-22.556-3.966-23.919-4.338-28.629.382-9.306.124-12.765-1.487-4.09-1.859-6.816,4.482-5.205,4.782-13.137a54.007,54.007,0,0,0-1.877-15.311Z" transform="translate(-52.005 -139.488)" fill-rule="evenodd" fill="url(#radial-gradient-10)"/>
    <path id="Path_1069" data-name="Path 1069" d="M968.987,512.916l-2.643,2.708a4.887,4.887,0,0,1,1.648-2.747c2.145-1.989.824-2.813,0-5.285s-5.612-3.48-9.576-4.631-2.812-4.461-3.637-8.268-3.14-4.618-6.946-7.43-4.618-8.765-5.455-12.559-.654-1.989-2.643-4.461-7.758-14.05-8.752-16.365.824-3.3,3.14-5.442-1.818-2.158-2.146-3.637,3.14-1.988,3.166-4.134-4.487-.994-5.821-1.818.17-1.989,3.14-3.467,8.268-.5,8.438-3.637-8.922-2.983-9.759-4.3.5-1.975,2.486-3.964.824-3.794,1.517-6.606,1.517-5.272,1.609-8.595a9.216,9.216,0,0,0-.222-2.315,4.9,4.9,0,0,1,1.557,5.455c-1.151,3.467-3.754,7.273-2.943,10.243s-4.147,2.5-2.681,4.631,9.262,1.491,9.759,3.964-3.257,4.461-4.853,5.455-5.115.327-5.18,1.491,4.513,1.648,5.036,2.473-3.31,2.093-3.427,4.291,3,1.989,2.734,3.637-3.231,1.818-3.4,5.128,4.631,10.269,4.958,12.885,4.3,5.128,5.049,6.28a17.535,17.535,0,0,1,1.727,5.285c.327,1.818-.235,3.153,2.643,6.777s7.6,4.461,8.1,7.443a37.6,37.6,0,0,0,1.818,7.431c.994,2.812,5.8,2.982,7.1,4.788s5.128,2.315,5.455,4.3S968.987,512.916,968.987,512.916Z" transform="translate(-104.683 -130.559)" fill-rule="evenodd" fill="url(#linear-gradient-3)" style="mix-blend-mode: screen;isolation: isolate"/>
    <path id="Path_1070" data-name="Path 1070" d="M892.566,500.644c.288.707.562,2.067.942,3.466a9.288,9.288,0,0,1-1.936-2.145c-.994-1.818-.5-2.97-1.648-4.958s-6.122.17-7.771-.994-.994-3.467-1.334-7.274-7.26-5.782-7.758-8.752,3.637-3.637,3.964-6.449-1.478-2.97-2.97-4.291-1.491-3.14-2.643-6.947-5.455-4.618-5.625-8.1,5.625-5.115,5.952-8.1-3.964-3.14-7.273-2.3-4.788.157-3.964-3.31,0-4.461.824-8.268,7.273-8.1,8.1-8.922,1.164-3.139.994-4.461-2.643-1.321-2.146-4.788,7.274-5.128,8.425-6.776c.889-1.269-.131-3.388-.641-4.291l1.282-1.021s2.42,2.7.654,4.919-6.58,4.029-7.574,6.5.824,3.14.994,4.958-1.858,6.777-1.858,6.777-4.422,4.578-5.743,6.253-.745,5.481-1.361,7.8,5.076,2.643,5.076,2.643,5.377,1.491,5.534,2.813-3.467,4.958-4.788,7.273-1.321,2.708.654,4.906,3.637,3.519,3.977,6.162,3.6,5.612,4.435,6.776,3.82,4.134,2,5.612-3.572.157-4.356,3.323,6,4.775,6.672,7.418-.824,3.676.994,6.776,8.255,1.648,8.752,2.983S891.9,499,892.566,500.644Z" transform="translate(-56.348 -127.745)" fill-rule="evenodd" fill="url(#linear-gradient-3)" style="mix-blend-mode: screen;isolation: isolate"/>
    <path id="Path_1071" data-name="Path 1071" d="M978.763,818.029c-.17,2.486,1.648,2.813,1.648,2.813s.824,3.31-.157,4.958-2.486,2.315-1.818,4.291.876,7.352.876,7.352l-3.493,4.539-.1.131-.026.013-.641.314c1.007-1.805,2.983-5.573,3.218-7.888.327-3.14-.994-3.467-1.321-5.612s2.315-3.14,2.472-4.958-2.472-1.989-2.969-4.461,4.958-4.461,4.958-6.606-4.461-.994-4.958-4.958c0-.026-.013-.065,0-.091a5.1,5.1,0,0,0,.994.589c2.473,1.321,3.388.981,4.592,2.473s.693,4.461.693,4.461S978.933,815.557,978.763,818.029Z" transform="translate(-137.261 -413.905)" fill-rule="evenodd" fill="url(#radial-gradient-11)" style="mix-blend-mode: screen;isolation: isolate"/>
    <path id="Path_1072" data-name="Path 1072" d="M944.689,400.877s6.2,3.562,6.6,5.811-2.416,1.472-2.416,1.472l1.618.627-7.276,6.912.087,2.053s4.3-3.095,5.357-2.22-.185,3.127-1.386,3.99a53.806,53.806,0,0,1-6.652,2.861s7.456-.577,8.441,0,1.3,4.912,1.434,6.411-4.969,3.007-4.969,3.007l5.765-1.282a54.489,54.489,0,0,0-6.38,7.44c-1.966,3.127-4.29,1.834-4.29,1.834s-.891,1.25.986,2.35a25.335,25.335,0,0,1,5.327-1.7A20.429,20.429,0,0,0,950,439.9s-7.623,7.676-9.591,12.047c0,0,3.317-4.607,5.46-6.224a12.585,12.585,0,0,1,3.383-1.995,30.3,30.3,0,0,1-1.132,6.577c-.742,2.028-5.285,7.177-5.285,7.177l1.073,2.052s2.906-5.078,3.99-5.833,1.569,2.019,1.569,2.019,1.966,2.206,1.549,3.813-4.089,5.376-4.089,5.376A9.165,9.165,0,0,0,950,468.044s2.756-4.313,3.511-3.774,1.725,3.99,1.725,5.391-3.3,7.111-3.3,7.111l4.915-4.955,3,2.049-1.6,2.906,2.448-1.5a47.831,47.831,0,0,1,1.757,4.96c.539,2.049-1.757,5.93-1.757,5.93l1.542,2.645s1.572-3.1,3.125-2.861,3.019,3.451,3.343,4.529-4.072,7.535-4.072,7.535l1.449.881s2.3-5.678,3.727-6.26,3.64,4.205,4.071,5.284-.479,3.334-.479,3.334l1.535.9,1.855-.782,1.2.782-1.1-3.261,4.744,2.156a48.411,48.411,0,0,1-6.685-6.254l2.48-.755a5.2,5.2,0,0,1-3.666-1.078l-2.372-4.636,6.086-1.529a13.274,13.274,0,0,1-.4-2.25s-6.09,2.814-7.273.983-2.829-4.859-2.829-4.859l5.535-1.908a7.085,7.085,0,0,1-3.81-2.728l-4.852.108,1.186-.863a2.394,2.394,0,0,1-2.156-1.078c-.647-1.186-1.681-4.205-2.188-5.284s6.285-2.48,6.285-2.48-6.071-.334-7.133-1.515-2.154-4.38-1.446-4.937,5.6-.219,5.6-.219-2.409-.392-3.517-5.15c0,0-4.067.391-5.038-.579s-.876-2.933-1.193-3.677,4.932-.744,4.932-.744l-4.672-.647s-1.655-2.264-1.332-3.882,7.92-3.949,8.651-5.317-.256-2.624-1.2-3.289c-.4-.281-2.469.693-4.163.088a12.448,12.448,0,0,1-4.367-3.235l1.68-.669-1.357-.948a48.326,48.326,0,0,0-1.142-6.577,20.258,20.258,0,0,1-.583-5.931l4.205,1.655s-3.882-3.7-3.99-4.674a10.043,10.043,0,0,1,1.294-5.392l6.974,6.039a10.766,10.766,0,0,0,.727-3.774s-5.782-3.218-6.678-4.893.594-3.625,1.241-4.38,6.141,2.082,6.141,2.082,1.527-2.328,2.248-3.807c0,0-13.493-.045-18.492-1.634Z" transform="translate(-112.838 -126.655)" fill-rule="evenodd" opacity="0.3" fill="url(#linear-gradient-2)" style="mix-blend-mode: multiply;isolation: isolate"/>
    <path id="Path_1073" data-name="Path 1073" d="M935.337,398.63s2.555.856,2.307,10.2-3.039,23.223-1.148,32.394-5.314,23.547-11.741,32.718-17.1,11.4-24.291,21.316-5.949,18.095-9.419,24.787-6.2,9.419-6.2,9.419,6.94-4.957,8.923-11.65,5.511-21.73,11.968-26.687,19.677-11.732,20.668-13.88-.107-3.123,1.516-5.61,4.445-11.245,7.413-14.715,4.455-12.889,3.959-14.046-1.218-3.579-2.148-9.749c-.978-6.49,2.13-37.481,1.652-34.356Z" transform="translate(-73.669 -125.335)" fill-rule="evenodd" fill="url(#radial-gradient-12)"/>
    <path id="Path_1074" data-name="Path 1074" d="M972.752,408.1s1.734,13.749,3.717,20.854,2.145,11.9,1.154,17.186-6.937,10.859-8.755,14.931-2.479,9.029-3.966,11.673-4.9,3.678-7.106,7.271-4.627,8.262-7.932,9.419-14.425,1.739-18.21,4.913-3.6,7.646-5.09,10.455-8.444,9.624-8.444,9.624,8.166-6.484,9.462-8.467.024-4.627,2.23-7.271,20.439-7.106,24.294-11.237,9.876-13.921,12.9-16.71,7.317-14.926,8.97-18.442,3.883-9.63,3.759-11.613-2.6-10.576-3.759-18.342a104.87,104.87,0,0,1-1.225-12.6A6.063,6.063,0,0,0,972.752,408.1Z" transform="translate(-97.127 -132.066)" fill-rule="evenodd" fill="url(#radial-gradient-13)"/>
    <path id="Path_1075" data-name="Path 1075" d="M800,254.73s3.179,3.959,15.965,2.309,18.185-8.982,28.209-13.726,25.431-7.255,27.141-9.036c0,0-7.718-11.667-29.023-8.217S802.087,250.836,800,254.73Z" transform="translate(-13.85 -3.28)" fill-rule="evenodd" fill="url(#linear-gradient-6)" style="mix-blend-mode: screen;isolation: isolate"/>
    <path id="Path_1076" data-name="Path 1076" d="M842.042,272.8c-.916,1.713,9-2.726,10.123-5.623s.625-3.636.625-3.636A19.429,19.429,0,0,0,842.042,272.8Z" transform="translate(-43.449 -30.156)" fill="#fff" fill-rule="evenodd"/>
    <path id="Path_1077" data-name="Path 1077" d="M818.624,307.259c-.307.91,4.166-2.067,4.475-3.572s.006-1.825.006-1.825A9.607,9.607,0,0,0,818.624,307.259Z" transform="translate(-26.97 -57.171)" fill="#fff" fill-rule="evenodd"/>
    <path id="Path_1078" data-name="Path 1078" d="M826.456,402.033s20.054-3.243,25.092,0,8.467,7.781,5.882,17.937c-2.37,9.311-7.212,34.859-1.733,47.99s19.929,24.876,23.573,40-8.142,47.762-8.142,47.762,7.791-20.556,9.239-27.5,6.072-16.643-6.654-35.9c-12.279-18.584-22.066-18.864-19.4-44.13s6.883-42.711,10.044-46.158,14.159-.957,15.612.577-.289,24.206,4.648,40.974c5.428,18.438,6.187,42.722,4.867,52.631s-2.182,32.121-2.182,32.121,4.508-41.337,3.45-48.665-.288-27.58-6.444-41.406c-4.785-10.747-2.675-28.6-1.1-33.235s18.056-8.366,18.056-8.366-8.037-1.929-13.7-.552-9,2.509-12.077,1.862-9.858-3.454-16.008-2.778-11.6,5.091-15.318,5.415-10.834.832-12.937-.2Z" transform="translate(-32.503 -122.897)" fill-rule="evenodd" fill="url(#linear-gradient-7)" style="mix-blend-mode: screen;isolation: isolate"/>
    <path id="Path_1079" data-name="Path 1079" d="M888.371,340.845a13.018,13.018,0,0,1-4.984,5.612s-2.106-3.231-10.793-4.173-12.113,1.2-18.432,2-9.733-.8-17.634-1.844-13.16,3.689-19.217,5-7.365-.262-12.9,0-11.787,6.292-13.945,1.844c-.667-1.361-1.335-2.8-1.936-4.317a7.357,7.357,0,0,0,.876,1.361c3,3.637,13.579-.981,13.579-.981s-4.082-8.189.9-19.727c-.392,1.086-2.159,6.24-1.57,10.963.667,5.285,1.989,8.1,3.807,9.092s9.079,1.648,14.7-.667,9.092-3.336,9.092-3.336.013-12.519,0-17.974c0,0,.288,14.246,1.517,16.967a46.582,46.582,0,0,1,5.586-1.1l.811-4.343.916,3.964s4.461,1.74,8.555,3.6,16.954-2,20.12-2.119c0,0,4.042-3.833,4.042-9.158,0-5.01-2.616-12.284-2.93-13.173.733,1.177,7.915,13.488,1.073,22.331a41.051,41.051,0,0,1,9.052,1.622,7.314,7.314,0,0,0,3.218-6.2,18.412,18.412,0,0,0-1.217-7.391c.327.55,4.147,7.09.353,14.207a6.311,6.311,0,0,0,3.964.877C886.709,343.4,888.135,341.211,888.371,340.845Z" transform="translate(-5.765 -68.781)" fill-rule="evenodd" fill="url(#radial-gradient-14)"/>
    <path id="Path_1080" data-name="Path 1080" d="M822.381,241.283c1.425,1.118,2.2,1.853,2.2,1.853-.691-.219-.965-.888-2.621-1.722a4.506,4.506,0,0,0-3.4-.132,9.263,9.263,0,0,1,1.941,5.954,15.43,15.43,0,0,0,.724,6c-.121-.153-.9-1.3-1.217-4.616a27.427,27.427,0,0,0-.965-5.482c-2.281-2.018-2.489-5.4-4.09-8.169a8.89,8.89,0,0,0-3.948-3.728c-3.2.34-12.029,8.465-12.029,8.882s1.2,1.294,2.851,1.448a3.129,3.129,0,0,1,2.38,1.557,4.018,4.018,0,0,0-3.465-.417,34.15,34.15,0,0,0,.68,3.564,6.056,6.056,0,0,0,2.621,3.136,5.161,5.161,0,0,1-3.147-3.476c-1.042-2.961-2.072-3.629-5.088-3s-6.634,7.5-6.634,8.454c0,.921,1.469,2.292,3.618,2.193s3.015-.735,4.386-.965a13.912,13.912,0,0,1,3.98.384,14.468,14.468,0,0,0-6.25.68c-3.641,1.14-7.094.208-7.8.559s-.45,3.443,2.566,4.682,5.121,3.224,5.614,3.2,1.316-1.974,3.037-1.8,3.662,1.9,4.957,3.586a5.867,5.867,0,0,0,2.281,1.963,3.785,3.785,0,0,1-2.072-1.338c-.987-1.2-2.182-2.906-4.046-3.476s-4.211.724-3.739,2.072,2,3.487,5.6,4.781,7.27,1.349,11.744,1.14a11.346,11.346,0,0,0,4.628-.888c-.965.614-3.641,1.8-9.584,1.415-7.972-.526-10.648-2.5-12.084-4.989s-2.084-4.057-6.338-4.266c-3.454-.165-6.821,2.072-7.961,2.906.855-4.639,3.191-9.628,7.884-14.946,9.967-11.251,21.086-20.439,34.1-23.565a3.47,3.47,0,0,1,.329,2.094c-.055,1.667-.954,3.652-.8,5.077a11.9,11.9,0,0,0,1.349,3.509,3.5,3.5,0,0,1-1.042-1.305c-.515-.987-.252-2.961-2.072-4.364s-6.6-.1-7.172.373-.044,2.489.943,3.63,2,6.821,2.434,6.886S820.955,240.164,822.381,241.283Z" transform="translate(-0.964 -2.781)" fill-rule="evenodd" fill="url(#linear-gradient-8)" style="mix-blend-mode: screen;isolation: isolate"/>
    <path id="Path_1081" data-name="Path 1081" d="M1043.391,297.458a27.067,27.067,0,0,0-14.471,6.157s4.017-2.584,6.856-3.079,6.769-4.649,9.34,1.79a3.745,3.745,0,0,1-1.515,2.216,22.122,22.122,0,0,1-3.116,2.008,13.634,13.634,0,0,1,4.631-1.4,20.97,20.97,0,0,1,3.534.363A46.079,46.079,0,0,1,1043.391,297.458Z" transform="translate(-175.241 -54.066)" fill-rule="evenodd" fill="url(#linear-gradient-9)" style="mix-blend-mode: screen;isolation: isolate"/>
    <path id="Path_1082" data-name="Path 1082" d="M1000.031,233.163s.245,4.9-1.14,7.756-1.938,4.1-1.938,4.1a4.7,4.7,0,0,0-3.741,2.909,32.029,32.029,0,0,0-1.385,6.094s.97-4.224,1.939-5.54,1.524-2.365,3.67-2.741a6.385,6.385,0,0,1,1.247-2.938,8.112,8.112,0,0,0,1.365-2.147s.5,1.177,1.059,2.563-.831,4.64-.346,6.164a41.1,41.1,0,0,1,1.385-5.789c.623-1.414-1.662-2.106-1.524-4.6a11.782,11.782,0,0,1,1.632-4.865Z" transform="translate(-149.089 -8.738)" fill-rule="evenodd" fill="url(#linear-gradient-10)" style="mix-blend-mode: screen;isolation: isolate"/>
  </g>
</svg>
