<?xml version="1.0" encoding="utf-8"?>
<!-- Generator: Adobe Illustrator 26.0.2, SVG Export Plug-In . SVG Version: 6.00 Build 0)  -->
<svg version="1.0" xmlns="http://www.w3.org/2000/svg" xmlns:xlink="http://www.w3.org/1999/xlink" x="0px" y="0px"
	 viewBox="0 0 3000 3000" enable-background="new 0 0 3000 3000" xml:space="preserve">
<g id="Layer_15">
	<g id="Layer_1:_Background" display="none">
		<g id="Background1" display="inline">
			<rect x="0" fill="#F3D191" stroke="#FF2600" stroke-miterlimit="10" width="3000" height="3000"/>
		</g>
		<rect id="Background2" x="0" fill="#E00000" width="3000" height="3000"/>
		<rect id="Background3" x="0" fill="#EF8FD9" width="3000" height="3000"/>
		<rect id="Background7" x="0" fill="#FFFFFF" width="3000" height="3000"/>
		<ellipse display="inline" opacity="0.2" cx="1501.4" cy="2466.3" rx="390.6" ry="51.9"/>
	</g>
	<g id="Layer_2:_Body_00000084495513132028315430000017064051223881287080_">
		<linearGradient id="SVGID_1_" gradientUnits="userSpaceOnUse" x1="2181.2432" y1="1507.7054" x2="827.3709" y2="1507.7054">
			<stop  offset="0" style="stop-color:#292929"/>
			<stop  offset="1" style="stop-color:#000000"/>
		</linearGradient>
		<path fill="url(#SVGID_1_)" d="M2170.4,1286.1c-212.8-356.5-726.1-289.6-726.1-289.6c-33.9-1.1-205.9-243.7-269.3-220.2
			c-53,19.6-19.6,318.8-19.6,318.8c-179.8,143.8-264.3,334.6-264.3,450.1c0,239.7,78.3,349.3-2.3,418.1s-68.2,170.5-39.7,232.5
			c28.5,62,83.7,55.8,88.7,6.8c5-49,120.9-76.3,142-80c21.1-3.7,13.6-52.1,24.2-53.3c10.5-1.2,14.9,19.8,39.7,40.3
			c24.8,20.5,135.2-9.9,199-9.3c63.9,0.6,39.7,136.4,124.6,37.2c84.9-99.2-154.4-212.6-257.9-220.1c-103.5-7.4-98-27.3-98-27.3
			c-0.4-125.1,83.8-166.8,167.1-177.5c14.7,37.5,45.7,62.2,72,47.2c15.2-8.7,37.2-23.4,59.4-44c19,2.9,30.8,5.7,30.8,5.7l176-32.8
			l103.1-28.6c8.9,12.9,19.2,25.2,30.7,36.7c21.2,21.4,45.2,40.3,71.3,55.2c8.1,4.5,17.6,4.2,26.3,0.1c17.3-8.4,29.1-26.3,36.3-43.9
			c12-29.4,12-64.1-3.1-92.4c-0.1-0.1-0.2-0.3-0.2-0.4l63.1-45.1C1943.8,1570.2,2240.9,1404.1,2170.4,1286.1z"/>
		
			<linearGradient id="SVGID_00000129911366971796301960000002638880728815732119_" gradientUnits="userSpaceOnUse" x1="2181.2432" y1="1507.7054" x2="827.3709" y2="1507.7054">
			<stop  offset="0" style="stop-color:#15FF99"/>
			<stop  offset="0.1182" style="stop-color:#14F691"/>
			<stop  offset="0.3117" style="stop-color:#11DD7D"/>
			<stop  offset="0.5564" style="stop-color:#0BB65B"/>
			<stop  offset="0.8398" style="stop-color:#047F2C"/>
			<stop  offset="0.9976" style="stop-color:#005D10"/>
		</linearGradient>
		<path display="none" fill="url(#SVGID_00000129911366971796301960000002638880728815732119_)" d="M2170.4,1286.1
			c-212.8-356.5-726.1-289.6-726.1-289.6c-33.9-1.1-205.9-243.7-269.3-220.2c-53,19.6-19.6,318.8-19.6,318.8
			c-179.8,143.8-264.3,334.6-264.3,450.1c0,239.7,78.3,349.3-2.3,418.1s-68.2,170.5-39.7,232.5c28.5,62,83.7,55.8,88.7,6.8
			c5-49,120.9-76.3,142-80c21.1-3.7,13.6-52.1,24.2-53.3c10.5-1.2,14.9,19.8,39.7,40.3c24.8,20.5,135.2-9.9,199-9.3
			c63.9,0.6,39.7,136.4,124.6,37.2c84.9-99.2-154.4-212.6-257.9-220.1c-103.5-7.4-98-27.3-98-27.3
			c-0.4-125.1,83.8-166.8,167.1-177.5c14.7,37.5,45.7,62.2,72,47.2c15.2-8.7,37.2-23.4,59.4-44c19,2.9,30.8,5.7,30.8,5.7l176-32.8
			l103.1-28.6c8.9,12.9,19.2,25.2,30.7,36.7c21.2,21.4,45.2,40.3,71.3,55.2c8.1,4.5,17.6,4.2,26.3,0.1c17.3-8.4,29.1-26.3,36.3-43.9
			c12-29.4,12-64.1-3.1-92.4c-0.1-0.1-0.2-0.3-0.2-0.4l63.1-45.1C1943.8,1570.2,2240.9,1404.1,2170.4,1286.1z"/>
		
			<linearGradient id="SVGID_00000105428391904003349490000000335752982380339110_" gradientUnits="userSpaceOnUse" x1="2181.2432" y1="1503.7054" x2="827.3709" y2="1503.7054">
			<stop  offset="2.917416e-03" style="stop-color:#15B3FF"/>
			<stop  offset="9.338862e-02" style="stop-color:#12ABFB"/>
			<stop  offset="0.4121" style="stop-color:#0896F1"/>
			<stop  offset="0.7193" style="stop-color:#0288EB"/>
			<stop  offset="1" style="stop-color:#0084E9"/>
		</linearGradient>
		<path display="none" fill="url(#SVGID_00000105428391904003349490000000335752982380339110_)" d="M2170.4,1282.1
			c-212.8-356.5-726.1-289.6-726.1-289.6c-33.9-1.1-205.9-243.7-269.3-220.2c-53,19.6-19.6,318.8-19.6,318.8
			c-179.8,143.8-264.3,334.6-264.3,450.1c0,239.7,78.3,349.3-2.3,418.1s-68.2,170.5-39.7,232.5c28.5,62,83.7,55.8,88.7,6.8
			c5-49,120.9-76.3,142-80c21.1-3.7,13.6-52.1,24.2-53.3c10.5-1.2,14.9,19.8,39.7,40.3c24.8,20.5,135.2-9.9,199-9.3
			c63.9,0.6,39.7,136.4,124.6,37.2c84.9-99.2-154.4-212.6-257.9-220.1c-103.5-7.4-98-27.3-98-27.3
			c-0.4-125.1,83.8-166.8,167.1-177.5c14.7,37.5,45.7,62.2,72,47.2c15.2-8.7,37.2-23.4,59.4-44c19,2.9,30.8,5.7,30.8,5.7l176-32.8
			l103.1-28.6c8.9,12.9,19.2,25.2,30.7,36.7c21.2,21.4,45.2,40.3,71.3,55.2c8.1,4.5,17.6,4.2,26.3,0.1c17.3-8.4,29.1-26.3,36.3-43.9
			c12-29.4,12-64.1-3.1-92.4c-0.1-0.1-0.2-0.3-0.2-0.4l63.1-45.1C1943.8,1566.2,2240.9,1400.1,2170.4,1282.1z"/>
		
			<linearGradient id="SVGID_00000151531985910337289200000000069671684701392002_" gradientUnits="userSpaceOnUse" x1="897.9631" y1="1482.0455" x2="2116.9456" y2="1696.985">
			<stop  offset="0" style="stop-color:#FCB321"/>
			<stop  offset="0.2096" style="stop-color:#FEC60F"/>
			<stop  offset="0.4284" style="stop-color:#FFD304"/>
			<stop  offset="0.6385" style="stop-color:#FFD700"/>
			<stop  offset="0.7154" style="stop-color:#FEE02A"/>
			<stop  offset="0.8517" style="stop-color:#FCEE70"/>
			<stop  offset="0.9501" style="stop-color:#FBF89B"/>
			<stop  offset="1" style="stop-color:#FBFBAC"/>
		</linearGradient>
		<path display="none" fill="url(#SVGID_00000151531985910337289200000000069671684701392002_)" d="M2170.4,1286.1
			c-212.8-356.5-726.1-289.6-726.1-289.6c-33.9-1.1-205.9-243.7-269.3-220.2c-53,19.6-19.6,318.8-19.6,318.8
			c-179.8,143.8-264.3,334.6-264.3,450.1c0,239.7,78.3,349.3-2.3,418.1s-68.2,170.5-39.7,232.5c28.5,62,83.7,55.8,88.7,6.8
			c5-49,120.9-76.3,142-80c21.1-3.7,13.6-52.1,24.2-53.3c10.5-1.2,14.9,19.8,39.7,40.3c24.8,20.5,135.2-9.9,199-9.3
			c63.9,0.6,39.7,136.4,124.6,37.2c84.9-99.2-154.4-212.6-257.9-220.1c-103.5-7.4-98-27.3-98-27.3
			c-0.4-125.1,83.8-166.8,167.1-177.5c14.7,37.5,45.7,62.2,72,47.2c15.2-8.7,37.2-23.4,59.4-44c19,2.9,30.8,5.7,30.8,5.7l176-32.8
			l103.1-28.6c8.9,12.9,19.2,25.2,30.7,36.7c21.2,21.4,45.2,40.3,71.3,55.2c8.1,4.5,17.6,4.2,26.3,0.1c17.3-8.4,29.1-26.3,36.3-43.9
			c12-29.4,12-64.1-3.1-92.4c-0.1-0.1-0.2-0.3-0.2-0.4l63.1-45.1C1943.8,1570.2,2240.9,1404.1,2170.4,1286.1z"/>
		
			<linearGradient id="SVGID_00000066490949004494721350000000775521788052410042_" gradientUnits="userSpaceOnUse" x1="2181.2432" y1="1507.7054" x2="827.3709" y2="1507.7054">
			<stop  offset="4.863436e-04" style="stop-color:#00FF00"/>
			<stop  offset="6.615023e-02" style="stop-color:#00FF43"/>
			<stop  offset="0.1502" style="stop-color:#00FF93"/>
			<stop  offset="0.2196" style="stop-color:#00FFCD"/>
			<stop  offset="0.2705" style="stop-color:#00FFF1"/>
			<stop  offset="0.2977" style="stop-color:#00FFFF"/>
			<stop  offset="0.3339" style="stop-color:#09F6FF"/>
			<stop  offset="0.3925" style="stop-color:#21DEFF"/>
			<stop  offset="0.4662" style="stop-color:#48B7FF"/>
			<stop  offset="0.552" style="stop-color:#7E81FF"/>
			<stop  offset="0.6468" style="stop-color:#C23DFF"/>
			<stop  offset="0.7245" style="stop-color:#FF00FF"/>
			<stop  offset="0.7358" style="stop-color:#FF0BF4"/>
			<stop  offset="0.8344" style="stop-color:#FE6B9B"/>
			<stop  offset="0.9141" style="stop-color:#FDB259"/>
			<stop  offset="0.9711" style="stop-color:#FCDD31"/>
			<stop  offset="1" style="stop-color:#FCEE21"/>
		</linearGradient>
		<path display="none" fill="url(#SVGID_00000066490949004494721350000000775521788052410042_)" d="M2170.4,1286.1
			c-212.8-356.5-726.1-289.6-726.1-289.6c-33.9-1.1-205.9-243.7-269.3-220.2c-53,19.6-19.6,318.8-19.6,318.8
			c-179.8,143.8-264.3,334.6-264.3,450.1c0,239.7,78.3,349.3-2.3,418.1s-68.2,170.5-39.7,232.5c28.5,62,83.7,55.8,88.7,6.8
			c5-49,120.9-76.3,142-80c21.1-3.7,13.6-52.1,24.2-53.3c10.5-1.2,14.9,19.8,39.7,40.3c24.8,20.5,135.2-9.9,199-9.3
			c63.9,0.6,39.7,136.4,124.6,37.2c84.9-99.2-154.4-212.6-257.9-220.1c-103.5-7.4-98-27.3-98-27.3
			c-0.4-125.1,83.8-166.8,167.1-177.5c14.7,37.5,45.7,62.2,72,47.2c15.2-8.7,37.2-23.4,59.4-44c19,2.9,30.8,5.7,30.8,5.7l176-32.8
			l103.1-28.6c8.9,12.9,19.2,25.2,30.7,36.7c21.2,21.4,45.2,40.3,71.3,55.2c8.1,4.5,17.6,4.2,26.3,0.1c17.3-8.4,29.1-26.3,36.3-43.9
			c12-29.4,12-64.1-3.1-92.4c-0.1-0.1-0.2-0.3-0.2-0.4l63.1-45.1C1943.8,1570.2,2240.9,1404.1,2170.4,1286.1z"/>
		
			<linearGradient id="SVGID_00000003817095750144995340000014306419802183831485_" gradientUnits="userSpaceOnUse" x1="1333.3025" y1="747.9938" x2="1579.7322" y2="2145.5664">
			<stop  offset="2.431072e-03" style="stop-color:#FFFFFF"/>
			<stop  offset="2.761037e-02" style="stop-color:#FDFDFD"/>
			<stop  offset="0.6613" style="stop-color:#DADADA"/>
			<stop  offset="1" style="stop-color:#CCCCCC"/>
		</linearGradient>
		<path display="none" fill="url(#SVGID_00000003817095750144995340000014306419802183831485_)" d="M2170.4,1286.1
			c-212.8-356.5-726.1-289.6-726.1-289.6c-33.9-1.1-205.9-243.7-269.3-220.2c-53,19.6-19.6,318.8-19.6,318.8
			c-179.8,143.8-264.3,334.6-264.3,450.1c0,239.7,78.3,349.3-2.3,418.1s-68.2,170.5-39.7,232.5c28.5,62,83.7,55.8,88.7,6.8
			c5-49,120.9-76.3,142-80c21.1-3.7,13.6-52.1,24.2-53.3c10.5-1.2,14.9,19.8,39.7,40.3c24.8,20.5,135.2-9.9,199-9.3
			c63.9,0.6,39.7,136.4,124.6,37.2c84.9-99.2-154.4-212.6-257.9-220.1c-103.5-7.4-98-27.3-98-27.3
			c-0.4-125.1,83.8-166.8,167.1-177.5c14.7,37.5,45.7,62.2,72,47.2c15.2-8.7,37.2-23.4,59.4-44c19,2.9,30.8,5.7,30.8,5.7l176-32.8
			l103.1-28.6c8.9,12.9,19.2,25.2,30.7,36.7c21.2,21.4,45.2,40.3,71.3,55.2c8.1,4.5,17.6,4.2,26.3,0.1c17.3-8.4,29.1-26.3,36.3-43.9
			c12-29.4,12-64.1-3.1-92.4c-0.1-0.1-0.2-0.3-0.2-0.4l63.1-45.1C1943.8,1570.2,2240.9,1404.1,2170.4,1286.1z"/>
		
			<linearGradient id="SVGID_00000144305265937281090140000008056731111897252762_" gradientUnits="userSpaceOnUse" x1="964.1849" y1="1880.0507" x2="1263.2963" y2="2236.5176">
			<stop  offset="0" style="stop-color:#F6F6F6"/>
			<stop  offset="0.9996" style="stop-color:#D0D0D0"/>
		</linearGradient>
		<path fill="url(#SVGID_00000144305265937281090140000008056731111897252762_)" d="M972.1,2017.5c0,0-31.5-29.3-37.1-52.9
			c0,0-127.1,96.8-48.4,198c0,0,12.4,4.5,45-38.3c0,0,96.8-32.6,118.1-47.3s26.1-44.6,50.8-47.9c24.8-3.4,38,34.5,62.8,40.1
			c24.8,5.6-12.3,1,131.6-12.4c96.8-9,117,45,130.5,42.8c13.5-2.2,26.6-87-171-145.1c-172.1-50.6-142.9,16.9-142.9,16.9
			s-22.5-138.4-106.9-117S972.1,2017.5,972.1,2017.5z"/>
		
			<linearGradient id="SVGID_00000107577109062605495240000017107563105053744310_" gradientUnits="userSpaceOnUse" x1="1418.8568" y1="1719.8279" x2="1418.8568" y2="1719.8279">
			<stop  offset="9.986119e-09" style="stop-color:#FFFFFF"/>
			<stop  offset="0.9996" style="stop-color:#D0D0D0"/>
		</linearGradient>
		
			<path fill="url(#SVGID_00000107577109062605495240000017107563105053744310_)" stroke="#808080" stroke-width="10" stroke-miterlimit="10" d="
			M1418.9,1719.8"/>
		<path fill="#FFFFFF" d="M1763.6,1672.4"/>
		<path opacity="0.2" fill="#F2F2F2" d="M932.5,1688.6c0,0-11.4-326.2,205.4-508.1C1137.9,1180.5,864,1342,932.5,1688.6z"/>
	</g>
	<g id="Layer_3.1:_Belly_and_mouth">
		<g id="Happy_00000169560434602402128390000001372494850408210600_">
			
				<linearGradient id="SVGID_00000012461880454334548380000006498331429200994199_" gradientUnits="userSpaceOnUse" x1="1249.0753" y1="1517.0435" x2="1132.8253" y2="1836.4376">
				<stop  offset="9.986119e-09" style="stop-color:#FFFFFF"/>
				<stop  offset="0.9996" style="stop-color:#D0D0D0"/>
			</linearGradient>
			<path fill="url(#SVGID_00000012461880454334548380000006498331429200994199_)" d="M1348,1553c-24.7-2.8-49.2-9.8-71.7-22.8
				c-108.9-62.9-313.4,255.2-159.2,300.2c0,0,28.8-87.8,85.3-100.2c28.3-6.2,48.7-13.2,79-16.5
				C1263.6,1653.3,1266.8,1609.1,1348,1553z"/>
			<path fill="#FFFFFF" d="M1594.5,1120.6c0,0,132.3-36.3,248.1,23.3s41.2-53.8-61.3-89.6s-222.9-40.3-252.6,24.5
				C1498.9,1143.5,1594.5,1120.6,1594.5,1120.6z"/>
			
				<linearGradient id="SVGID_00000009591386453427683970000005956222977044709526_" gradientUnits="userSpaceOnUse" x1="1878.6198" y1="1208.9543" x2="1659.5415" y2="1810.8671">
				<stop  offset="9.986119e-09" style="stop-color:#FFFFFF"/>
				<stop  offset="0.9996" style="stop-color:#D0D0D0"/>
			</linearGradient>
			<path fill="url(#SVGID_00000009591386453427683970000005956222977044709526_)" d="M2178.5,1318.1c0,0-383.8,165.8-562.3-2.5
				c-95.7-90.3-167.8,2.7-97.4,62.2c76,64.3,56.9,111.3,21.5,136.2c0,0-25.8,16.7-46.5,18.9c3.1,109.1-89.3,185-89.3,185
				c4.7,0.6,9.5,1.2,14.4,1.8c139.2,18.2,397.9-68.4,498.5-119S2185.9,1419.5,2178.5,1318.1z"/>
			<g>
				<path fill="#1A1A1A" d="M1620.7,1363.2c0.8-1.5,1.1-3.3,0.6-5c-12.7-44.3,27.8-60,29.5-60.6c3.3-1.2,5.1-4.9,4-8.2
					c-1.1-3.3-4.7-5-8-3.8c-0.5,0.2-53.8,20.5-37.7,76.7c1,3.4,4.5,5.2,7.8,4.1C1618.6,1365.8,1619.9,1364.6,1620.7,1363.2z"/>
			</g>
			<path fill="none" stroke="#1A1A1A" stroke-width="12" stroke-miterlimit="10" d="M2178.5,1318.1c0,0-383.8,165.8-562.3-2.5"/>
		</g>
		<g id="Sad_00000056396340436962364480000003469516809485371833_" display="none">
			
				<linearGradient id="SVGID_00000031905099399312486840000018410796244510110114_" gradientUnits="userSpaceOnUse" x1="1249.0753" y1="1517.0435" x2="1132.8253" y2="1836.4376">
				<stop  offset="9.986119e-09" style="stop-color:#FFFFFF"/>
				<stop  offset="0.9996" style="stop-color:#D0D0D0"/>
			</linearGradient>
			<path display="inline" fill="url(#SVGID_00000031905099399312486840000018410796244510110114_)" d="M1348,1553
				c-24.7-2.8-49.2-9.8-71.7-22.8c-108.9-62.9-313.4,255.2-159.2,300.2c0,0,28.8-87.8,85.3-100.2c28.3-6.2,48.7-13.2,79-16.5
				C1263.6,1653.3,1266.8,1609.1,1348,1553z"/>
			<path display="inline" fill="#FFFFFF" d="M1594.5,1120.6c0,0,132.3-36.3,248.1,23.3s41.2-53.8-61.3-89.6s-222.9-40.3-252.6,24.5
				C1498.9,1143.5,1594.5,1120.6,1594.5,1120.6z"/>
			
				<linearGradient id="SVGID_00000089558555169371495350000003492636902589162138_" gradientUnits="userSpaceOnUse" x1="1833.8672" y1="1294.9736" x2="1647.67" y2="1806.5461">
				<stop  offset="9.986119e-09" style="stop-color:#FFFFFF"/>
				<stop  offset="0.9996" style="stop-color:#D0D0D0"/>
			</linearGradient>
			<path display="inline" fill="url(#SVGID_00000089558555169371495350000003492636902589162138_)" d="M1632.6,1361.5
				c-97.7-261.1-206.2-36.7-135.8,22.9c76,64.3,78.8,104.7,43.4,129.7c0,0-25.8,16.7-46.5,18.9c3.1,109.1-89.3,185-89.3,185
				c4.7,0.6,9.5,1.2,14.4,1.8c139.2,18.2,397.9-68.4,498.5-119c71.9-36.1,178.2-113.3,230.3-191.4c-9.9-7.1-115.1-16-258.8-32.5
				C1726.2,1358.2,1648.1,1402.8,1632.6,1361.5z"/>
			<g display="inline">
				<path fill="#1A1A1A" d="M1597.7,1401.3c1.3,1.1,3.1,1.6,4.8,1.4c45.8-5.2,54.6,37.3,55,39.1c0.7,3.5,4,5.9,7.5,5.3
					c3.4-0.5,5.7-3.8,5-7.2c-0.1-0.6-11.4-56.5-69.4-49.9c-3.5,0.4-5.9,3.6-5.3,7.1C1595.5,1398.8,1596.4,1400.2,1597.7,1401.3z"/>
			</g>
			<path display="inline" fill="none" stroke="#1A1A1A" stroke-width="12" stroke-miterlimit="10" d="M2146.9,1408.9
				c0,0-491.7-83-506.6,0"/>
		</g>
	</g>
	<g id="Layer_4:_Outline_body">
		<path fill="none" stroke="#1A1A1A" stroke-width="12" stroke-miterlimit="10" d="M2170.4,1286.1
			c-212.8-356.5-726.1-289.6-726.1-289.6c-33.9-1.1-205.9-243.7-269.3-220.2c-53,19.6-19.6,318.8-19.6,318.8
			c-179.8,143.8-264.3,334.6-264.3,450.1c0,239.7,78.3,349.3-2.3,418.1s-68.2,170.5-39.7,232.5c28.5,62,83.7,55.8,88.7,6.8
			c5-49,120.9-76.3,142-80c21.1-3.7,13.6-52.1,24.2-53.3c10.5-1.2,14.9,19.8,39.7,40.3c24.8,20.5,135.2-9.9,199-9.3
			c63.9,0.6,39.7,136.4,124.6,37.2c84.9-99.2-154.4-212.6-257.9-220.1c-103.5-7.4-98-27.3-98-27.3
			c-0.4-125.1,83.8-166.8,167.1-177.5c14.7,37.5,45.7,62.2,72,47.2c14.5-8.4,35.3-22.2,56.5-41.4c3.9,0.5,7.9,1,11.9,1.5
			c81.1,10.6,202.8-14.4,310.1-47.1c76.2-25.3,196.4-69.8,278.6-128c30.3-21.5,59.8-47.2,85.6-73.9
			C2154.7,1410,2202.4,1339.7,2170.4,1286.1z"/>
		<path fill="none" stroke="#1A1A1A" stroke-width="12" stroke-miterlimit="10" d="M1881,1615.8c15.2,28.3,15.2,63,3.1,92.4
			c-7.2,17.6-19,35.4-36.3,43.9c-8.7,4.1-18.1,4.4-26.3-0.1c-26.2-14.9-50.2-33.8-71.3-55.2c-7.2-7.2-13.9-14.7-20-22.4L1881,1615.8
			z"/>
		<path fill="#1A1A1A" d="M1380.7,1445.8c7.6,10.1,11.4,22.9,11.5,35.5c0.2,21.6-10.7,41.7-24.4,57.7c-5.4,6.3-11.8,12.6-18,18
			c-1.7,1.4-5.7,4.8-7.3,6.1c-3.9,3-8.7,6.7-12.7,9.5c-5.8,4.2-14.4,9.9-19.5,14.9c-8.9,8.1-16.5,17.6-22.1,28.2
			c-15.2,28.3-15.2,63-3.1,92.4c7.2,17.6,19,35.4,36.3,43.9c8.7,4.1,18.1,4.4,26.3-0.1c26.2-14.9,50.2-33.8,71.3-55.2
			c57.4-57.7,83.8-133.2,65.6-213.6c-4.4-20.3-11.2-40.1-19.4-59.2c7.7,14.8,14.5,30.2,19.6,46.2c28.7,86.4,4.5,169.9-57.7,234.6
			c-21.7,22.6-46.6,42.3-73.9,57.9c-30.5,16.1-60.5-12.4-73.4-38.2c-19.2-36.6-19.8-83.9,3.3-118.8c8.3-12.8,19.3-23.6,31.7-32.3
			c3-2.2,7.5-4.8,10.6-6.9c10.1-6.5,20.5-14.3,29.3-22.5c8.9-8.2,17.3-17.6,23.6-28C1391.4,1494.7,1394.4,1467.3,1380.7,1445.8
			L1380.7,1445.8z"/>
	</g>
	<g id="Layer_5:_Eyes">
		<g id="Happy" display="none">
			
				<radialGradient id="SVGID_00000142864050993877659750000013851842844158659516_" cx="1497.7534" cy="1633.9222" r="25.1219" gradientTransform="matrix(2.7679 -0.2338 0.2338 2.7679 -2762.1099 -2924.0137)" gradientUnits="userSpaceOnUse">
				<stop  offset="0" style="stop-color:#FFFFFF"/>
				<stop  offset="0.9988" style="stop-color:#E5E5E5"/>
			</radialGradient>
			<path display="inline" fill="url(#SVGID_00000142864050993877659750000013851842844158659516_)" d="M1837.2,1246.1
				c2.2,25.6-9.4,49.1-28.5,63.4c-10.4,7.7-18.9-0.8-32.7,0.4c-12.8,1.1-29.2,12.3-40.1,7.2c-22.6-10.5-39.1-32.4-41.3-59
				c-3.3-39.4,25.9-74.1,65.3-77.4C1799.2,1177.4,1833.9,1206.7,1837.2,1246.1z"/>
			<path display="inline" d="M1833.7,1229.2c-5.5-9.3-14.1-15.1-23.3-14.3c-14.5,1.2-24.9,18.4-23.3,38.4
				c1.7,20,14.8,35.2,29.4,33.9c6.6-0.6,12.3-4.4,16.5-10.3c3.6-9.6,5.1-20.1,4.2-30.9C1836.7,1240.2,1835.5,1234.6,1833.7,1229.2z"
				/>
			
				<radialGradient id="SVGID_00000121250485277431730110000017045378715629552564_" cx="1510.4298" cy="1636.339" r="2.0281" gradientTransform="matrix(2.7679 -0.2338 0.2338 2.7679 -2762.1099 -2924.0137)" gradientUnits="userSpaceOnUse">
				<stop  offset="0" style="stop-color:#FFFFFF"/>
				<stop  offset="1" style="stop-color:#D5D7F0"/>
			</radialGradient>
			
				<circle display="inline" fill="url(#SVGID_00000121250485277431730110000017045378715629552564_)" cx="1801.2" cy="1252.1" r="5.6"/>
			<g display="inline">
				<path fill="#1A1A1A" d="M1686,1324c21.3,0.4,41.6-1.5,61-9.4c6.7-2.6,12.7-6.8,19.6-9c21.9-7.3,45.9-1,65.3,10.1
					c6.3,3.6,12.3,7.7,17.7,12.6c-13.2-5.8-26.5-10.5-40-13.1c-15.9-3-31.8-2.8-45.6,4.4c-4.1,2.2-8.3,4.3-12.7,5.9
					C1730.4,1333.1,1706.4,1332.8,1686,1324L1686,1324z"/>
			</g>
		</g>
		<g id="Sad" display="none">
			<path display="inline" fill="#1A1A1A" d="M1793.3,1107c-2.6,0.5-5.1,1.9-6.7,4.2c-41.2,59.4-99.8,26.1-102.3,24.7
				c-4.7-2.8-11-1.3-13.9,3.3c-2.9,4.6-1.5,10.6,3.2,13.4c0.8,0.5,77.5,44.6,129.8-30.7c3.1-4.5,1.9-10.6-2.7-13.6
				C1798.5,1107,1795.8,1106.5,1793.3,1107z"/>
			
				<radialGradient id="SVGID_00000027565361129221196510000001743413160347957687_" cx="1497.7534" cy="1633.9222" r="25.1219" gradientTransform="matrix(2.7679 -0.2338 0.2338 2.7679 -2762.1099 -2924.0137)" gradientUnits="userSpaceOnUse">
				<stop  offset="0" style="stop-color:#FFFFFF"/>
				<stop  offset="0.9988" style="stop-color:#E5E5E5"/>
			</radialGradient>
			<path display="inline" fill="url(#SVGID_00000027565361129221196510000001743413160347957687_)" d="M1837.2,1246.1
				c2.2,25.6-9.4,49.1-28.5,63.4c-10.4,7.7-18.9-0.8-32.7,0.4c-12.8,1.1-29.2,12.3-40.1,7.2c-22.6-10.5-39.1-32.4-41.3-59
				c-3.3-39.4,25.9-74.1,65.3-77.4C1799.2,1177.4,1833.9,1206.7,1837.2,1246.1z"/>
			<path display="inline" d="M1833.7,1229.2c-5.5-9.3-14.1-15.1-23.3-14.3c-14.5,1.2-24.9,18.4-23.3,38.4
				c1.7,20,14.8,35.2,29.4,33.9c6.6-0.6,12.3-4.4,16.5-10.3c3.6-9.6,5.1-20.1,4.2-30.9C1836.7,1240.2,1835.5,1234.6,1833.7,1229.2z"
				/>
			
				<radialGradient id="SVGID_00000029042310480622415570000017422700483710201788_" cx="1510.4298" cy="1636.339" r="2.0281" gradientTransform="matrix(2.7679 -0.2338 0.2338 2.7679 -2762.1099 -2924.0137)" gradientUnits="userSpaceOnUse">
				<stop  offset="0" style="stop-color:#FFFFFF"/>
				<stop  offset="1" style="stop-color:#D5D7F0"/>
			</radialGradient>
			
				<circle display="inline" fill="url(#SVGID_00000029042310480622415570000017422700483710201788_)" cx="1801.2" cy="1252.1" r="5.6"/>
			<g display="inline">
				<path fill="#1A1A1A" d="M1686,1324c21.3,0.4,41.6-1.5,61-9.4c6.7-2.6,12.7-6.8,19.6-9c21.9-7.3,45.9-1,65.3,10.1
					c6.3,3.6,12.3,7.7,17.7,12.6c-13.2-5.8-26.5-10.5-40-13.1c-15.9-3-31.8-2.8-45.6,4.4c-4.1,2.2-8.3,4.3-12.7,5.9
					C1730.4,1333.1,1706.4,1332.8,1686,1324L1686,1324z"/>
			</g>
		</g>
		<g id="Angry">
			
				<radialGradient id="SVGID_00000020366903492092664590000002690068729276176822_" cx="1497.7534" cy="1633.9222" r="25.1219" gradientTransform="matrix(2.7679 -0.2338 0.2338 2.7679 -2762.1099 -2924.0137)" gradientUnits="userSpaceOnUse">
				<stop  offset="0" style="stop-color:#FFFFFF"/>
				<stop  offset="0.9988" style="stop-color:#E5E5E5"/>
			</radialGradient>
			<path fill="url(#SVGID_00000020366903492092664590000002690068729276176822_)" d="M1837.2,1246.1c2.2,25.6-9.4,49.1-28.5,63.4
				c-10.4,7.7-18.9-0.8-32.7,0.4c-12.8,1.1-29.2,12.3-40.1,7.2c-22.6-10.5-39.1-32.4-41.3-59c-3.3-39.4,25.9-74.1,65.3-77.4
				C1799.2,1177.4,1833.9,1206.7,1837.2,1246.1z"/>
			<path d="M1833.7,1229.2c-5.5-9.3-14.1-15.1-23.3-14.3c-14.5,1.2-24.9,18.4-23.3,38.4c1.7,20,14.8,35.2,29.4,33.9
				c6.6-0.6,12.3-4.4,16.5-10.3c3.6-9.6,5.1-20.1,4.2-30.9C1836.7,1240.2,1835.5,1234.6,1833.7,1229.2z"/>
			
				<radialGradient id="SVGID_00000160878905522535442570000014512199375581669516_" cx="1510.4298" cy="1636.339" r="2.0281" gradientTransform="matrix(2.7679 -0.2338 0.2338 2.7679 -2762.1099 -2924.0137)" gradientUnits="userSpaceOnUse">
				<stop  offset="0" style="stop-color:#FFFFFF"/>
				<stop  offset="1" style="stop-color:#D5D7F0"/>
			</radialGradient>
			<circle fill="url(#SVGID_00000160878905522535442570000014512199375581669516_)" cx="1801.2" cy="1252.1" r="5.6"/>
			<g>
				<path fill="#1A1A1A" d="M1686,1324c21.3,0.4,41.6-1.5,61-9.4c6.7-2.6,12.7-6.8,19.6-9c21.9-7.3,45.9-1,65.3,10.1
					c6.3,3.6,12.3,7.7,17.7,12.6c-13.2-5.8-26.5-10.5-40-13.1c-15.9-3-31.8-2.8-45.6,4.4c-4.1,2.2-8.3,4.3-12.7,5.9
					C1730.4,1333.1,1706.4,1332.8,1686,1324L1686,1324z"/>
			</g>
			<path fill="#1A1A1A" d="M1760,1157.6c2.1,1.6,4.8,2.4,7.6,2c71.6-10,86.9,55.6,87.5,58.4c1.2,5.4,6.5,9,11.9,8
				c5.4-1,8.8-6.1,7.7-11.5c-0.2-0.9-19.7-87.2-110.5-74.6c-5.4,0.8-9.1,5.8-8.1,11.2C1756.5,1153.9,1757.9,1156.1,1760,1157.6z"/>
		</g>
		<g id="Eye_Poppin" display="none">
			
				<radialGradient id="SVGID_00000159433993962023719420000017697021446958678412_" cx="1497.7534" cy="1633.9222" r="25.1219" gradientTransform="matrix(2.7679 -0.2338 0.2338 2.7679 -2762.1099 -2924.0137)" gradientUnits="userSpaceOnUse">
				<stop  offset="0" style="stop-color:#FFFFFF"/>
				<stop  offset="0.9988" style="stop-color:#E5E5E5"/>
			</radialGradient>
			<path display="inline" fill="url(#SVGID_00000159433993962023719420000017697021446958678412_)" d="M1837.2,1246.1
				c2.2,25.6-9.4,49.1-28.5,63.4c-10.4,7.7-18.9-0.8-32.7,0.4c-12.8,1.1-29.2,12.3-40.1,7.2c-22.6-10.5-39.1-32.4-41.3-59
				c-3.3-39.4,25.9-74.1,65.3-77.4C1799.2,1177.4,1833.9,1206.7,1837.2,1246.1z"/>
			<g display="inline">
				<path fill="#1A1A1A" d="M1686,1324c21.3,0.4,41.6-1.5,61-9.4c6.7-2.6,12.7-6.8,19.6-9c21.9-7.3,45.9-1,65.3,10.1
					c6.3,3.6,12.3,7.7,17.7,12.6c-13.2-5.8-26.5-10.5-40-13.1c-15.9-3-31.8-2.8-45.6,4.4c-4.1,2.2-8.3,4.3-12.7,5.9
					C1730.4,1333.1,1706.4,1332.8,1686,1324L1686,1324z"/>
			</g>
			<circle display="inline" cx="1768.8" cy="1249.6" r="36.8"/>
			<path display="inline" fill="#1A1A1A" d="M1705.5,1180.5c2.7,0.2,5.4-0.7,7.5-2.5c54.3-47.8,103.2-1.4,105.2,0.6
				c3.9,3.8,10.4,3.9,14.3,0.1c4-3.8,4-9.9,0.1-13.8c-0.6-0.6-64.5-61.9-133.3-1.4c-4.1,3.6-4.4,9.8-0.6,13.8
				C1700.6,1179.3,1703,1180.4,1705.5,1180.5z"/>
		</g>
	</g>
	<g id="Layer_6:_attributes" display="none">
	</g>
</g>
<g id="Layer_16">
	<rect id="Background7_00000145045909702565665020000000561842818309820580_" x="0" fill="none" width="3000" height="3000"/>
	
		<ellipse transform="matrix(0.1804 -0.9836 0.9836 0.1804 505.9802 2900.6189)" fill="#1A1A1A" cx="1993.5" cy="1146.7" rx="6.8" ry="25.3"/>
</g>
</svg>
