<svg xmlns="http://www.w3.org/2000/svg" width="24.497" height="20.728" viewBox="0 0 24.497 20.728">
  <path id="Path_55" data-name="Path 55" d="M346.845,229.087a.819.819,0,0,0-.735-.748,1.775,1.775,0,0,0-.931.187l-9.922,3.757q-5.622,2.129-11.244,4.26a8.628,8.628,0,0,0-1.1.43.9.9,0,0,0-.542.918.839.839,0,0,0,.681.737c.1.028.191.059.286.089q2.5.778,4.993,1.555a.336.336,0,0,1,.243.24q.93,2.864,1.866,5.726a5.5,5.5,0,0,0,.461,1.174.722.722,0,0,0,.638.36,1.285,1.285,0,0,0,.92-.439c.953-.843,1.832-1.764,2.753-2.64a.24.24,0,0,1,.377-.022c.713.538,1.434,1.065,2.152,1.6q1.577,1.166,3.153,2.333a2.145,2.145,0,0,0,1.137.453,1.009,1.009,0,0,0,.795-.4,2.226,2.226,0,0,0,.366-.929q.639-3.161,1.277-6.322,1.173-5.8,2.346-11.593A2.039,2.039,0,0,0,346.845,229.087Zm-4.246,3.156a.584.584,0,0,1-.2.3q-1.873,1.683-3.742,3.369-2.645,2.377-5.293,4.752c-.372.334-.738.674-1.111,1.007a.6.6,0,0,0-.2.411q-.233,2.118-.478,4.234a.352.352,0,0,1-.027.075l-.053.006c-.134-.4-.27-.809-.4-1.215-.54-1.657-1.076-3.316-1.624-4.971a.3.3,0,0,1,.142-.415q3.864-2.411,7.72-4.835,2.27-1.423,4.538-2.848a1.246,1.246,0,0,1,.4-.192A.253.253,0,0,1,342.6,232.243Z" transform="translate(-322.371 -228.326)" fill="#fff"/>
</svg>
