<svg xmlns="http://www.w3.org/2000/svg" width="23.38" height="21.99" viewBox="0 0 23.38 21.99">
  <path id="Path_54" data-name="Path 54" d="M347.275,243.4a1.453,1.453,0,0,0,.229.179,10.992,10.992,0,0,0,1.766,1.01,13.148,13.148,0,0,0,5,1.137,10.632,10.632,0,0,0,1.379-.053,12.043,12.043,0,0,0,3.256-.766,13.553,13.553,0,0,0,5.476-3.941,15.463,15.463,0,0,0,2.2-3.416,16.747,16.747,0,0,0,1.382-4.436,17.654,17.654,0,0,0,.206-1.868c.019-.32.033-.642.023-.963-.01-.341-.01-.683-.017-1.024a.27.27,0,0,1,.139-.264c.15-.094.292-.2.434-.308a9.5,9.5,0,0,0,1.371-1.295,2.621,2.621,0,0,0,.518-.943c.011-.032.033-.07,0-.1s-.067,0-.1.01c-.152.071-.3.144-.453.215a4.8,4.8,0,0,1-1.589.489,2.142,2.142,0,0,1-.515,0c-.038-.006-.091,0-.094-.058s.043-.05.075-.064l.028-.011a2.94,2.94,0,0,0,1.418-1.22,7.263,7.263,0,0,0,.382-.73,1.469,1.469,0,0,0,.142-.56c.011-.2-.012-.217-.2-.126-.477.237-.945.489-1.432.7a7.625,7.625,0,0,1-1.188.417.25.25,0,0,1-.285-.076,3.639,3.639,0,0,0-.281-.279,4.688,4.688,0,0,0-1.13-.819,4.814,4.814,0,0,0-5.857,1.289,5.015,5.015,0,0,0-1.158,3.151,4.118,4.118,0,0,0,.116,1.107c.026.1.047.209.065.314.022.13,0,.15-.132.156h-.03c-.41-.008-.819.011-1.229-.02a9.541,9.541,0,0,1-1.675-.278,13.081,13.081,0,0,1-3.143-1.282,12.337,12.337,0,0,1-3.139-2.431,5.731,5.731,0,0,1-.915-1.252.693.693,0,0,0-.045-.08c-.031-.047-.064-.043-.095,0a.538.538,0,0,0-.03.053,5.592,5.592,0,0,0-.6,3.464,3.816,3.816,0,0,0,.376,1.189,6.493,6.493,0,0,0,.975,1.47,4.775,4.775,0,0,0,1.29,1.006c.041.022.1.032.114.084-.028.036-.06.029-.089.026-.363-.026-.727-.041-1.089-.084a3.317,3.317,0,0,1-1.453-.5c-.03-.02-.06-.039-.09-.056-.052-.029-.079-.006-.079.047a1.628,1.628,0,0,0,.009.2,6.085,6.085,0,0,0,1.26,3.086,3.581,3.581,0,0,0,.541.6,8.924,8.924,0,0,0,1.235.86,4.194,4.194,0,0,0,1.475.54.172.172,0,0,1,.129.052,4.218,4.218,0,0,1-.486.148,3.417,3.417,0,0,1-1.946,0c-.1-.031-.2-.066-.3-.1-.047-.014-.1-.055-.142-.015s0,.1.012.142a5.641,5.641,0,0,0,1.729,2.539,4.578,4.578,0,0,0,2.264,1c.175.029.351.044.527.067.033,0,.074,0,.089.05a.377.377,0,0,1-.124.1c-.352.24-.708.474-1.071.7a11.983,11.983,0,0,1-2.429,1.18,11.538,11.538,0,0,1-2.818.581A.258.258,0,0,0,347.275,243.4Z" transform="translate(-347.275 -223.746)" fill="#fff"/>
</svg>
